<svg xmlns="http://www.w3.org/2000/svg" xml:space="preserve" id="Layer_1" x="0px" y="0px" style="enable-background:new 0 0 205.4 137.7" version="1.1" viewBox="0 0 205.4 137.7"><style>.st2{fill:#113375}</style><linearGradient id="SVGID_1_" x1="185.3225" x2="111.2067" y1="19.4608" y2="58.6484" gradientUnits="userSpaceOnUse"><stop offset="2.453990e-02" style="stop-color:#0058a5"/><stop offset="0.1963" style="stop-color:#98b9e3"/><stop offset="0.2062" style="stop-color:#91b3df"/><stop offset="0.2906" style="stop-color:#5c89c7"/><stop offset="0.3641" style="stop-color:#336db4"/><stop offset="0.4231" style="stop-color:#145da9"/><stop offset="0.4601" style="stop-color:#0058a5"/><stop offset="0.6564" style="stop-color:#203b8f"/><stop offset="0.865" style="stop-color:#1d286b"/></linearGradient><path d="M191.5 38.2 176.1 9.5 171.2.6l-49.1 29.7-5.2 17.7-8.7 27.6s75.6-24 82.8-34.6c.8-1.2.6-2.3.5-2.8z" style="fill:url(#SVGID_1_)"/><linearGradient id="SVGID_2_" x1="142.7988" x2="149.6565" y1="13.642" y2="21.6426" gradientUnits="userSpaceOnUse"><stop offset="0" style="stop-color:#0058a5"/><stop offset="0.411" style="stop-color:#6293ce"/><stop offset="0.865" style="stop-color:#98b9e3"/></linearGradient><path d="M169 5.5c1.6-1.6 3.9-4.9 1.1-5.4-11.1-2-48.8 30.6-47.9 29.8l-1.2 4.4c3.5-1.7 34.2-19.2 37.2-21.2 3.1-1.9 9-5.9 10.8-7.6z" style="fill:url(#SVGID_2_)"/><path d="M122.2 29.9zM127.4 25.5c-3.1 2.5-5 4.2-5.2 4.3l-.8 2.9s19.2-11.2 33.3-19.8C165 6.7 170.5 2 167.7 1c-.5-.2-1.8-.3-3.2.1-7.4 2.2-17.8 9.5-26.5 16.1-4.1 3.1-7.8 6.1-10.6 8.3z" class="st2"/><linearGradient id="SVGID_3_" x1="203.9971" x2="105.9818" y1="98.5204" y2="53.6395" gradientTransform="rotate(-1.908 819.397 141.71)" gradientUnits="userSpaceOnUse"><stop offset="0.2331" style="stop-color:#6293ce"/><stop offset="0.4294" style="stop-color:#98b9e3"/><stop offset="0.9877" style="stop-color:#6293ce"/></linearGradient><path d="M110.2 48.9s27.2 10 50.6 35.7c19.7 21.6 43.3 20.4 43.3 20.4l-22.8 32.7s-23.6.5-46.1-22.8C111.1 90 97.4 88.6 97.4 88.6l12.8-39.7z" style="fill:url(#SVGID_3_)"/><linearGradient id="SVGID_4_" x1="205.7377" x2="109.0634" y1="95.7224" y2="51.4555" gradientTransform="rotate(-1.908 819.397 141.71)" gradientUnits="userSpaceOnUse"><stop offset="0" style="stop-color:#6690cb"/><stop offset="0.5767" style="stop-color:#0058a5"/><stop offset="0.7914" style="stop-color:#203b8f"/><stop offset="1" style="stop-color:#1a1d57"/></linearGradient><path d="M113.6 45.7s27.7 13.8 48.5 37c19.5 21.8 43.3 20.4 43.3 20.4l-22.8 32.7s-23.6.5-46.1-22.9C112.4 88 98.6 86.6 98.6 86.6l15-40.9z" style="fill:url(#SVGID_4_)"/><linearGradient id="SVGID_5_" x1="20.5069" x2="72.2089" y1="142.3536" y2="101.8913" gradientTransform="rotate(2.74 705.136 138.502)" gradientUnits="userSpaceOnUse"><stop offset="0.1288" style="stop-color:#98b9e3"/><stop offset="0.816" style="stop-color:#6293ce"/></linearGradient><path d="m58.3 62.8.1.1S25.2 85.5 1.3 97l27.8 31.6c20.7-12.2 47.9-30 65.5-47.3L58.3 62.8z" style="fill:url(#SVGID_5_)"/><linearGradient id="SVGID_6_" x1="19.0391" x2="70.9709" y1="140.7475" y2="100.1053" gradientTransform="rotate(2.74 705.136 138.502)" gradientUnits="userSpaceOnUse"><stop offset="0.319" style="stop-color:#4a80c2"/><stop offset="0.6012" style="stop-color:#0058a5"/><stop offset="0.9202" style="stop-color:#203b8f"/><stop offset="1" style="stop-color:#1e2c72"/></linearGradient><path d="m57.3 61.2.1.1S23.9 84.1 0 95.5l27.5 31.2c20.7-12.2 48.1-30.1 65.8-47.5l-36-18z" style="fill:url(#SVGID_6_)"/><linearGradient id="SVGID_7_" x1="76.8428" x2="76.8428" y1="28.479" y2="28.479" gradientUnits="userSpaceOnUse"><stop offset="6.134970e-03" style="stop-color:#274190"/><stop offset="7.361960e-02" style="stop-color:#1f62ad"/><stop offset="0.3804" style="stop-color:#6694ce"/><stop offset="0.6258" style="stop-color:#0058a5"/><stop offset="0.9387" style="stop-color:#254391"/></linearGradient><linearGradient id="SVGID_8_" x1="252.9372" x2="193.0211" y1="68.4317" y2="100.1115" gradientTransform="rotate(-119.703 119.294 110.864)" gradientUnits="userSpaceOnUse"><stop offset="2.453990e-02" style="stop-color:#0058a5"/><stop offset="0.1963" style="stop-color:#98b9e3"/><stop offset="0.2124" style="stop-color:#91b3df"/><stop offset="0.3499" style="stop-color:#5c89c7"/><stop offset="0.4695" style="stop-color:#336db4"/><stop offset="0.5655" style="stop-color:#145da9"/><stop offset="0.6258" style="stop-color:#0058a5"/><stop offset="0.8528" style="stop-color:#203b8f"/><stop offset="1" style="stop-color:#1a1d57"/></linearGradient><path d="M28.7 1.2 11.2 29 6 37.5l64 36 4.6-11.8L90.2 39S44.2 1.1 31.3.1c-1.4.1-2.3.7-2.6 1.1z" style="fill:url(#SVGID_8_)"/><linearGradient id="SVGID_9_" x1="37.0278" x2="39.8326" y1="59.3688" y2="53.7592" gradientTransform="rotate(5.043 54.925 70.984)" gradientUnits="userSpaceOnUse"><stop offset="0" style="stop-color:#0058a5"/><stop offset="0.411" style="stop-color:#6293ce"/><stop offset="0.7914" style="stop-color:#6293ce"/></linearGradient><path d="M11.1 37.2s-2.9-.9-4.4-.3c0 0-1.4.3-.8 2 4.3 11.4 64.7 35 63.5 34.6l4.5-1.1c-3.3-1.9-41.2-24.3-49.7-29-5.9-3.2-10.7-5.2-13.1-6.2z" style="fill:url(#SVGID_9_)"/><path d="M71.6 73S9.2 35.7 7.8 40.6c-.1.5.7 1.7 1.7 2.8 1 1 2.3 2 3.7 3 16.8 11.7 55.3 26.9 56 27.2l2.4-.6z" class="st2"/><linearGradient id="SVGID_10_" x1="69.7363" x2="75.3525" y1="78.2355" y2="67.0031" gradientUnits="userSpaceOnUse"><stop offset="0" style="stop-color:#0058a5"/><stop offset="0.411" style="stop-color:#6293ce"/><stop offset="0.7914" style="stop-color:#6293ce"/></linearGradient><path d="M72.4 72.9z" style="fill:url(#SVGID_10_)"/><path d="M72.4 72.9zM72.4 72.9zM72.4 72.9z" class="st2"/><linearGradient id="SVGID_11_" x1="99.901" x2="84.6202" y1="26.9993" y2="83.3324" gradientUnits="userSpaceOnUse"><stop offset="0" style="stop-color:#0058a5"/><stop offset="4.401180e-02" style="stop-color:#0e5ca8"/><stop offset="0.103" style="stop-color:#2768b1"/><stop offset="0.1703" style="stop-color:#477ec0"/><stop offset="0.2209" style="stop-color:#6293ce"/><stop offset="0.2945" style="stop-color:#98b9e3"/><stop offset="0.4049" style="stop-color:#6293ce"/><stop offset="0.5521" style="stop-color:#203b8f"/><stop offset="0.7669" style="stop-color:#1a1d57"/><stop offset="0.9755" style="stop-color:#203b8f"/></linearGradient><path d="m76.5 27.9 43.9 1 1.9.8s-15.6 55.5-19.6 60.5h-2.2l-35.2-18s-.9-.3-.3-2l11.5-42.3z" style="fill:url(#SVGID_11_)"/><linearGradient id="SVGID_12_" x1="100.7339" x2="122.3086" y1="59.6184" y2="59.6184" gradientUnits="userSpaceOnUse"><stop offset="0" style="stop-color:#203b8f"/><stop offset="0.7117" style="stop-color:#98b9e3"/><stop offset="1" style="stop-color:#2b6ab3"/></linearGradient><path d="M111 60.4s-7.7 25.5-10.3 29.9h2c3.9-5 19.6-60.5 19.6-60.5l-1.9-.8c-1.8 6-5.8 19.7-9.4 31.4z" style="fill:url(#SVGID_12_)"/></svg>