<svg xmlns="http://www.w3.org/2000/svg" viewBox="0 0 33 33" width="33" height="33">
  <!-- 미쉐린 가이드 스타 -->
  <path fill="#C1282D" d="M21.8,25.5c0,0.6,0.1,1.1,0.1,1.6c0,3.2-2.2,5.4-5.3,5.4c-3.2,0-5.3-2.2-5.3-5.7c0-0.5,0-0.5,0-0.7v-0.6
    c-1.7,1.2-2.8,1.6-4.3,1.6c-2.7,0-5.2-2.6-5.2-5.5c0-2.1,1.5-3.9,3.7-4.9L6,16.5c-2.8-1.4-4.2-3-4.2-5.2c0-3,2.3-5.5,5.2-5.5
    c1.2,0,2.7,0.6,3.8,1.4l0.5,0.2c0-0.6-0.1-1.1-0.1-1.5c0-3.2,2.2-5.4,5.3-5.4c3.2,0,5.3,2.2,5.3,5.7v0.7l-0.1,0.5
    c1.7-1.2,2.8-1.6,4.3-1.6c2.7,0,5.2,2.6,5.2,5.5c0,2.1-1.5,3.9-3.7,4.9L27,16.5c2.8,1.4,4.2,3,4.2,5.2c0,3-2.3,5.5-5.2,5.5
    c-1.2,0-2.8-0.5-3.8-1.4L21.8,25.5z M19.1,20.1c2.5,3.6,4.8,5.4,6.9,5.4c1.8,0,3.4-1.8,3.4-3.8c0-2.6-3.1-4.3-8.5-4.7v-0.9
    c5.5-0.5,8.5-2.1,8.5-4.7c0-2-1.6-3.8-3.4-3.8c-2.1,0-4.4,1.8-6.9,5.4l-0.9-0.5c1.2-2.5,1.8-4.6,1.8-6.3c0-2.5-1.4-3.9-3.6-3.9
    s-3.6,1.5-3.6,3.9c0,1.8,0.6,3.8,1.8,6.4l-0.9,0.5C11.5,9.6,9.1,7.8,7,7.8c-1.8,0-3.4,1.8-3.4,3.8c0,2.6,3,4.3,8.5,4.7v0.9
    c-5.4,0.5-8.5,2.1-8.5,4.7c0,2,1.6,3.8,3.4,3.8c2.1,0,4.4-1.8,6.9-5.4l0.9,0.5c-1.2,2.6-1.8,4.7-1.8,6.4c0,2.3,1.4,3.9,3.6,3.9
    s3.6-1.5,3.6-3.9c0-1.7-0.6-3.8-1.8-6.4L19.1,20.1z"/>
</svg>
